PathFileType	4	(X/Y/Z)	SUBJ82_4_walk_RCNL2025.trc
DataRate	CameraRate	NumFrames	NumMarkers	Units	OrigDataRate	OrigDataStartFrame	OrigNumFrames
100	100	11	25	mm	100	122	242
Frame#	Time	R_Shoulder			L_Shoulder			C7			J_Notch			R_Elbow			L_Elbow			R_Wrist			L_Wrist			R_Asis			L_Asis			Sacral			Thoracic			Sternum			R_Thigh_Lateral			R_Knee_Lateral			R_Shank_Lateral			R_Ankle_Lateral			R_Heel			R_Toe			L_Thigh_Lateral			L_Knee_Lateral			L_Shank_Lateral			L_Ankle_Lateral			L_Heel			L_Toe		
		X1	Y1	Z1	X2	Y2	Z2	X3	Y3	Z3	X4	Y4	Z4	X5	Y5	Z5	X6	Y6	Z6	X7	Y7	Z7	X8	Y8	Z8	X9	Y9	Z9	X10	Y10	Z10	X11	Y11	Z11	X12	Y12	Z12	X13	Y13	Z13	X14	Y14	Z14	X15	Y15	Z15	X16	Y16	Z16	X17	Y17	Z17	X18	Y18	Z18	X19	Y19	Z19	X20	Y20	Z20	X21	Y21	Z21	X22	Y22	Z22	X23	Y23	Z23	X24	Y24	Z24	X25	Y25	Z25
122	1.21000000	541.039185	1390.440552	-59.586792	544.291931	1397.365234	-470.406647	495.371094	1486.830933	-259.447266	613.779907	1365.111816	-262.140686	503.667328	1060.697510	45.505623	377.212860	1085.181152	-522.868042	652.767578	847.662262	17.701457	393.517044	822.159607	-509.184296	573.856079	955.552673	-109.680786	615.919312	965.803528	-376.403046	419.275024	976.533813	-291.167084	394.305023	1251.207886	-273.727905	636.128845	1190.487671	-258.520447	388.077332	555.013428	-83.503601	358.637390	472.398041	-134.509079	239.620056	275.234863	-83.050125	158.269119	111.789207	-182.735901	108.309486	97.081604	-226.230927	278.950256	48.950138	-199.188461	656.959534	534.927856	-437.470856	693.077576	470.170441	-393.696625	776.508179	255.857605	-433.379456	848.968628	78.087418	-369.442261	820.851379	45.360798	-313.122253	990.469666	108.905457	-348.962982
123	1.22000000	556.815552	1389.655396	-61.060768	559.592407	1396.260132	-471.976288	510.826172	1485.921753	-261.049225	629.574341	1364.446411	-263.734283	518.486084	1059.980469	43.817593	393.498810	1083.544067	-524.379517	665.290222	845.172485	17.175434	410.822510	820.629761	-510.512741	591.081543	954.358704	-110.236374	633.395325	966.092041	-377.030640	436.727142	975.862427	-292.249146	410.369110	1249.960205	-274.480377	652.515991	1189.944458	-259.872986	402.718445	555.138611	-83.011185	372.859314	472.568726	-133.321625	248.467911	278.767517	-81.924034	162.698669	117.585129	-181.441895	112.679222	105.232239	-225.151367	280.175110	48.761898	-198.886993	678.698730	536.866211	-439.357758	712.869019	470.823212	-395.231812	789.390442	253.881012	-433.444733	855.522583	74.654243	-368.856934	826.128174	43.075169	-312.777863	997.634399	99.768723	-347.355530
124	1.23000000	572.549194	1389.222778	-62.602970	575.138916	1395.438110	-473.606506	526.401550	1485.384521	-262.773102	645.477112	1364.168213	-265.352997	533.078918	1059.569336	41.894955	410.442963	1082.013184	-526.071533	677.252899	842.797913	16.523428	428.887604	819.220032	-512.036057	608.700439	953.420349	-110.968346	650.997314	966.811707	-377.807220	454.305817	975.557983	-293.263458	426.635162	1249.024048	-275.303253	669.097107	1189.817139	-261.269653	418.358093	555.219788	-82.485756	388.250977	472.740204	-132.015839	258.197845	282.734528	-80.764343	168.109299	123.962479	-180.059189	118.264526	114.232185	-224.102737	281.571289	48.530373	-198.582260	699.542542	538.776794	-441.177155	731.919556	471.626129	-396.757538	801.808105	252.308136	-433.449585	861.187073	71.668388	-368.312805	830.383423	41.464668	-312.473907	1003.843140	90.383270	-345.449432
125	1.24000000	588.237183	1389.157593	-64.188171	590.925842	1394.919434	-475.274475	542.099670	1485.239746	-264.595215	661.481750	1364.301758	-266.975128	547.440125	1059.471069	39.740791	428.032898	1080.623413	-527.913513	688.664703	840.575928	15.742207	447.701462	817.958069	-513.755844	626.650757	952.757385	-111.897537	668.611145	967.939026	-378.747986	471.906464	975.599854	-294.186981	443.070862	1248.441162	-276.195953	685.839355	1190.119995	-262.697784	435.155945	555.175598	-81.921509	405.003387	472.848602	-130.603485	268.977783	287.165985	-79.603104	174.689331	130.947159	-178.603531	125.297920	124.112259	-223.109482	283.201355	48.328430	-198.277557	719.248535	540.602722	-442.860748	750.164978	472.629730	-398.238098	814.047485	251.339630	-433.468445	866.323425	69.347900	-367.907318	833.900574	40.730381	-312.295380	1009.370239	81.230652	-343.385681
126	1.25000000	603.887390	1389.473877	-65.789825	606.940674	1394.725220	-476.953461	557.929443	1485.494019	-266.484222	677.580994	1364.859375	-268.578735	561.564880	1059.697632	37.358971	446.246918	1079.413086	-529.873474	699.532715	838.543671	14.827515	467.253922	816.878174	-515.674896	644.830627	952.376648	-113.037308	686.114929	969.441040	-379.864838	489.422180	975.960754	-294.977478	459.635529	1248.238770	-277.151001	702.685974	1190.848877	-264.143066	453.283630	554.911255	-81.290550	423.302185	472.808685	-129.085999	281.018616	292.066925	-78.456879	182.627945	138.555817	-177.087677	133.994263	134.879166	-222.176437	285.160706	48.285549	-197.955215	737.771423	542.366150	-444.396454	767.665588	473.888031	-399.666046	826.290894	251.063538	-433.603302	871.066345	67.743439	-367.693329	836.803589	40.864498	-312.293884	1014.279297	72.711121	-341.346466
127	1.26000000	619.518616	1390.179688	-67.383728	623.171143	1394.869263	-478.614777	573.896423	1486.127197	-268.405212	693.768311	1365.824585	-270.142517	575.450745	1060.262939	34.760399	465.049011	1078.420410	-531.921814	709.862610	836.736420	13.773584	487.536438	816.019196	-517.795166	663.108765	952.264832	-114.390762	703.394653	971.268066	-381.159973	506.757965	976.603088	-295.582336	476.283478	1248.416138	-278.156708	719.565674	1191.969849	-265.587372	472.896393	554.326965	-80.549728	443.293640	472.520081	-127.460655	294.544678	297.409607	-77.326920	192.097855	146.784348	-175.532135	144.528091	146.500381	-221.296921	287.602234	48.599415	-197.575592	755.257568	544.120728	-445.830933	784.544617	475.401855	-401.057648	838.557373	251.400711	-433.934174	875.368774	66.760094	-367.659180	839.140381	41.677376	-312.470490	1018.497131	65.118118	-339.513367
128	1.27000000	635.155823	1391.265747	-68.950066	639.612000	1395.348633	-480.229401	589.989502	1487.088379	-270.323730	710.034912	1367.139526	-271.643921	589.098511	1061.172729	31.969534	484.383789	1077.676025	-534.035400	719.661774	835.182831	12.571707	508.541138	815.418976	-520.114914	681.340881	952.386353	-115.946754	720.357178	973.349304	-382.620392	523.838257	977.476990	-295.958588	492.965088	1248.945801	-279.201904	736.407104	1193.413818	-267.006622	494.100586	553.330811	-79.655609	465.049133	471.882904	-125.730904	309.757233	303.129700	-76.206177	203.244583	155.593948	-173.973297	157.018433	158.889099	-220.458771	290.768646	49.533264	-197.081512	771.950806	545.890381	-447.238281	800.877136	477.082733	-402.432617	850.662476	252.110886	-434.459503	879.126892	66.243614	-367.738983	840.976624	42.892963	-312.776978	1021.951660	58.629990	-338.022430
129	1.28000000	650.822144	1392.697876	-70.472527	656.269043	1396.137085	-481.768829	606.174255	1488.303467	-272.209076	726.364319	1368.711304	-273.058075	602.509583	1062.413452	29.027813	504.175873	1077.194214	-536.199585	728.946167	833.900452	11.211088	530.256058	815.106262	-522.625687	699.388245	952.691284	-117.676254	736.937988	975.596924	-384.218231	540.607483	978.524475	-296.093719	509.627167	1249.785034	-280.279541	753.151917	1195.085693	-268.368591	516.927185	551.859375	-78.581474	488.544800	470.823914	-123.914429	326.810944	309.122345	-75.089233	216.190735	164.899200	-172.466537	171.525848	171.888275	-219.651825	295.017365	51.379765	-196.405762	788.015808	547.627319	-448.666962	816.589355	478.765808	-403.791779	862.229431	252.887650	-435.095306	882.286804	66.050804	-367.843140	842.416016	44.250954	-313.138519	1024.653320	53.322414	-336.924347
130	1.29000000	666.531311	1394.416992	-71.936089	673.155579	1397.186523	-483.206360	622.401001	1489.695679	-274.036194	742.730042	1370.435181	-274.358856	615.685425	1063.946777	25.991125	524.337769	1076.968384	-538.408691	737.747925	832.893219	9.684581	552.659058	815.093353	-525.309570	717.132324	953.129028	-119.532967	753.103821	977.919128	-385.915039	557.029480	979.688843	-296.013306	526.215454	1250.890747	-281.387390	769.759827	1196.883179	-269.631470	541.312439	549.905945	-77.334427	513.664307	469.325836	-122.044014	345.814209	315.232849	-73.975166	231.046768	174.560867	-171.082657	188.058792	185.256668	-218.881073	300.812958	54.379780	-195.482193	803.395081	549.223206	-450.104034	831.443481	480.266602	-405.109558	872.790527	253.479279	-435.736420	884.857239	66.062439	-367.885101	843.555481	45.556171	-313.478699	1026.677490	49.185272	-336.171997
131	1.30000000	682.279907	1396.346802	-73.325333	690.283203	1398.436035	-484.518402	638.620911	1491.208496	-275.784729	759.097168	1372.223755	-275.521606	628.629028	1065.712524	22.920795	544.784546	1076.972778	-540.666016	746.117920	832.150787	7.994538	575.713379	815.373779	-528.138809	734.483948	953.663696	-121.459129	768.849609	980.236572	-387.664642	573.087830	980.925171	-295.772949	542.680115	1252.230591	-282.526398	786.203979	1198.716553	-270.747498	567.084656	547.548645	-75.966103	540.219177	467.451324	-120.163513	366.840790	321.245117	-72.862320	247.908401	184.390320	-169.894348	206.581314	198.662872	-218.182281	308.677368	58.625050	-194.260101	817.820312	550.566467	-451.484680	845.116638	481.445770	-406.343384	881.949097	253.754303	-436.310669	886.870544	66.182320	-367.803436	844.448792	46.683140	-313.740326	1028.121094	46.133484	-335.655029
132	1.31000000	698.042725	1398.406738	-74.623466	707.649963	1399.825195	-485.684998	654.798706	1492.817871	-277.435791	775.425171	1374.024536	-276.525543	641.345520	1067.639160	19.872734	565.447937	1077.169434	-542.980530	754.120636	831.649109	6.152673	599.367462	815.926971	-531.077759	751.389587	954.287109	-123.393311	784.195007	982.495605	-389.417206	588.785156	982.210083	-295.442780	558.982727	1253.785278	-283.697571	802.462646	1200.522339	-271.674286	593.966187	544.963074	-74.568665	567.973633	465.352112	-118.325325	389.926758	326.885803	-71.745758	266.835480	194.163025	-168.960678	227.014206	211.696594	-217.626144	319.122192	64.005287	-192.719482	830.963196	551.599121	-452.732727	857.318298	482.248657	-407.450287	889.485413	253.701416	-436.792023	888.368652	66.344254	-367.580780	845.115784	47.572918	-313.897125	1029.087158	44.018684	-335.264496
